<?xml version="1.0" encoding="utf-8"?>
<!-- Generator: Adobe Illustrator 24.3.0, SVG Export Plug-In . SVG Version: 6.00 Build 0)  -->
<svg version="1.1" id="Слой_1" xmlns="http://www.w3.org/2000/svg" xmlns:xlink="http://www.w3.org/1999/xlink" x="0px" y="0px"
	 viewBox="0 0 70 54.9" style="enable-background:new 0 0 70 54.9;" xml:space="preserve">
<style type="text/css">
	.st0{fill:#ED4C5C;}
</style>
<path class="st0" d="M43.8,42.7H38V23.8c0-0.3-0.3-0.6-0.6-0.6h-4.7c-0.3,0-0.6,0.3-0.6,0.6v18.9h-5.8c-0.5,0-0.8,0.6-0.5,1
	l8.8,11.1c0.1,0.1,0.1,0.1,0.2,0.2c0.1,0,0.2,0.1,0.3,0.1c0.1,0,0.2,0,0.3-0.1c0.1,0,0.2-0.1,0.2-0.2l8.8-11.1
	C44.6,43.3,44.3,42.7,43.8,42.7z"/>
<path class="st0" d="M58.4,16.1C54.8,6.7,45.7,0,35,0S15.2,6.7,11.6,16.1C4.9,17.9,0,24,0,31.3c0,8.6,7,15.6,15.6,15.6h3.1
	c0.3,0,0.6-0.3,0.6-0.6v-4.7c0-0.3-0.3-0.6-0.6-0.6h-3.1c-2.6,0-5.1-1-7-2.9c-1.8-1.9-2.8-4.4-2.7-7.1c0.1-2.1,0.8-4,2-5.6
	c1.3-1.7,3.1-2.9,5.2-3.4l3-0.8l1.1-2.9c0.7-1.8,1.6-3.4,2.8-5c1.2-1.5,2.5-2.8,4.1-3.9c3.2-2.3,7-3.5,10.9-3.5S42.7,7.1,46,9.4
	c1.6,1.1,2.9,2.4,4.1,3.9c1.2,1.5,2.1,3.2,2.8,5l1.1,2.9l3,0.8c4.2,1.1,7.2,5,7.2,9.4c0,2.6-1,5-2.8,6.9c-0.9,0.9-2,1.6-3.1,2.1
	c-1.2,0.5-2.4,0.7-3.7,0.7h-3.1c-0.3,0-0.6,0.3-0.6,0.6v4.7c0,0.3,0.3,0.6,0.6,0.6h3.1c8.6,0,15.6-7,15.6-15.6
	C70,24,65.1,17.9,58.4,16.1z"/>
</svg>
