<?xml version="1.0" encoding="utf-8"?>
<!-- Generator: Adobe Illustrator 24.3.0, SVG Export Plug-In . SVG Version: 6.00 Build 0)  -->
<svg version="1.1" id="Слой_1" xmlns="http://www.w3.org/2000/svg" xmlns:xlink="http://www.w3.org/1999/xlink" x="0px" y="0px"
	 viewBox="0 0 47.7 63.8" style="enable-background:new 0 0 47.7 63.8;" xml:space="preserve">
<style type="text/css">
	.st0{fill-rule:evenodd;clip-rule:evenodd;fill:#ED4C5C;}
</style>
<path class="st0" d="M24.8,3.5L46.7,11c0.5,0.2,1,0.8,1,1.4v31.1c0,0.6-0.4,1.3-0.8,1.7L24.7,62.4c-0.2,0.2-0.5,0.3-0.8,0.3
	c-0.3,0-0.6-0.1-0.8-0.3L0.8,45.1C0.4,44.7,0,44,0,43.4V12.3c0-0.6,0.4-1.2,1-1.4l21.9-7.5c0.3-0.1,0.6-0.1,1-0.1S24.6,3.4,24.8,3.5
	z M23.8,57.1l19.2-15V14.6L23.8,8.1L4.6,14.6v27.6L23.8,57.1z"/>
<path class="st0" d="M16.8,34.1l-5,5c-0.1,0.1-0.1,0.2-0.1,0.4c0,0.1,0.1,0.3,0.1,0.4L14,42c0.2,0.2,0.5,0.2,0.7,0l5-5
	c3.6,2.3,8.4,1.8,11.5-1.3c3.6-3.6,3.6-9.5,0-13.1s-9.5-3.6-13.1,0C15,25.7,14.6,30.5,16.8,34.1z M28.3,25.5c-2-2-5.3-2-7.3,0
	c-2,2-2,5.3,0,7.3c2,2,5.3,2,7.3,0C30.3,30.8,30.3,27.5,28.3,25.5z"/>
</svg>
