<?xml version="1.0" encoding="utf-8"?>
<!-- Generator: Adobe Illustrator 24.3.0, SVG Export Plug-In . SVG Version: 6.00 Build 0)  -->
<svg version="1.1" id="Слой_1" xmlns="http://www.w3.org/2000/svg" xmlns:xlink="http://www.w3.org/1999/xlink" x="0px" y="0px"
	 viewBox="0 0 47.8 54" style="enable-background:new 0 0 47.8 54;" xml:space="preserve">
<style type="text/css">
	.st0{fill:#ED4C5C;}
</style>
<path class="st0" d="M12.6,27.7c0-1.5-1-2.3-2.8-2.3c-0.7,0-1.2,0.1-1.5,0.1v4.7c0.3,0.1,0.7,0.1,1.2,0.1
	C11.5,30.3,12.6,29.3,12.6,27.7z"/>
<path class="st0" d="M23.7,25.4c-0.8,0-1.3,0.1-1.6,0.1v10.3c0.3,0.1,0.8,0.1,1.2,0.1c3.2,0,5.3-1.8,5.3-5.5
	C28.7,27.1,26.7,25.4,23.7,25.4z"/>
<path class="st0" d="M44.8,19.3h-1.3v-6.3c0,0,0-0.1,0-0.1c0-0.3-0.1-0.5-0.3-0.7L32.8,0.4l0,0c-0.1-0.1-0.3-0.2-0.5-0.3l-0.1,0
	c-0.1,0-0.2,0-0.2,0H6.4C5.3,0,4.3,1,4.3,2.1v17.2H3c-1.7,0-3,1.4-3,3v15.7c0,1.7,1.4,3,3,3h1.3v10.8c0,1.2,0.9,2.1,2.1,2.1h34.9
	c1.2,0,2.1-1,2.1-2.1V41.1h1.3c1.7,0,3-1.4,3-3V22.3C47.8,20.7,46.5,19.3,44.8,19.3z M6.4,2.1H31V13c0,0.6,0.5,1.1,1.1,1.1h9.4v5.3
	H6.4V2.1z M32.4,30.3c0,3-1.1,5.1-2.6,6.4c-1.7,1.4-4.2,2-7.3,2c-1.9,0-3.2-0.1-4.1-0.2V23c1.3-0.2,3-0.3,4.8-0.3
	c3,0,4.9,0.5,6.5,1.7C31.4,25.6,32.4,27.5,32.4,30.3z M4.8,38.6V23c1.1-0.2,2.7-0.3,4.8-0.3c2.2,0,3.8,0.4,4.8,1.3
	c1,0.8,1.7,2.1,1.7,3.7c0,1.5-0.5,2.9-1.5,3.8c-1.2,1.1-3,1.7-5.1,1.7c-0.5,0-0.9,0-1.2-0.1v5.7H4.8z M41.4,51.3H6.4V41.1h34.9V51.3
	z M44.5,25.7h-6.1v3.6h5.7v2.9h-5.7v6.4h-3.6V22.8h9.7V25.7z"/>
</svg>
